<svg width="43" height="36" viewBox="0 0 43 36" fill="none" xmlns="http://www.w3.org/2000/svg">
<path d="M16.2755 33.7605C16.2755 33.7628 16.2727 33.7639 16.2711 33.7623C9.2311 26.7176 9.23254 15.2973 16.2755 8.25442L21.0388 3.49109C25.7289 -1.19906 33.3649 -1.15636 38.1038 3.57648C43.3734 8.84603 43.6174 16.726 38.3966 21.9406L26.5645 33.4922C22.8399 36.845 19.2188 36.6943 16.2798 33.7588C16.2782 33.7572 16.2755 33.7583 16.2755 33.7605Z" fill="url(#paint0_linear_368_3400)"/>
<path d="M25.6999 18.9019C25.698 18.9019 25.6961 18.9027 25.6947 18.9041L23.5012 21.0976C17.9755 26.6233 8.99776 26.5867 3.52084 21.0061C-1.2181 16.2672 -1.15102 8.83857 3.58792 4.09963C8.85748 -1.16993 17.4022 -1.16993 22.6718 4.09963L25.703 7.13082C28.953 10.3809 28.9538 15.6488 25.7051 18.8998C25.7038 18.9011 25.7019 18.9019 25.6999 18.9019Z" fill="url(#paint1_linear_368_3400)"/>
<path d="M27.0095 24.3597C29.4147 26.8183 29.3712 30.7613 26.9124 33.1663C21.9112 37.9296 18.203 36.0145 14.7082 32.4405L7.21343 24.7793C5.13142 22.6511 5.16927 19.2379 7.29798 17.1564C10.872 13.6616 16.6051 13.7226 20.0998 17.2967L27.0095 24.3597Z" fill="url(#paint2_linear_368_3400)"/>
<defs>
<linearGradient id="paint0_linear_368_3400" x1="1.05231" y1="65.3656" x2="37.7989" y2="-5.2244" gradientUnits="userSpaceOnUse">
<stop stop-color="#F5E9FF"/>
<stop offset="0.23" stop-color="#FFC069"/>
<stop offset="0.57" stop-color="#FF88FF"/>
<stop offset="1" stop-color="#916EFF"/>
</linearGradient>
<linearGradient id="paint1_linear_368_3400" x1="0.898259" y1="-9.87932" x2="33.3938" y2="47.2197" gradientUnits="userSpaceOnUse">
<stop stop-color="#F5E9FF"/>
<stop offset="0.23" stop-color="#FFC069"/>
<stop offset="0.57" stop-color="#FF88FF"/>
<stop offset="1" stop-color="#916EFF"/>
</linearGradient>
<linearGradient id="paint2_linear_368_3400" x1="10.6402" y1="11.9661" x2="23.1798" y2="35.8926" gradientUnits="userSpaceOnUse">
<stop stop-color="#F5E9FF"/>
<stop offset="0.23" stop-color="#FFC069"/>
<stop offset="0.57" stop-color="#FF88FF"/>
<stop offset="1" stop-color="#916EFF"/>
</linearGradient>
</defs>
</svg>
